<svg version="1.2" xmlns="http://www.w3.org/2000/svg" viewBox="0 0 1418 850" width="1418" height="850">
	<title>OhLaVache-ai</title>
	<style>
		tspan { white-space:pre }
		.s0 { fill: #ffffff }
		.s1 { opacity: .7;fill: #5bb046 }
		.t2 { font-size: 40px;fill: #ffffff;font-family: "Oxfam Global Headline" }
		.t3 { font-size: 30px;fill: #ffffff;font-weight: bold;font-family: "T" }
		.t4 { font-size: 50px;fill: #ffffff;font-family: "Oxfam Global Headline" }
		.s5 { fill: #5bb046 }
	</style>
	<g id="_Artboards_">
		<path id="Plan de travail 2" class="s0" d="m0-897.7h708.7v425.2h-708.7z"/>
		<path id="Plan de travail 3" class="s0" d="m0-449.2h708.7v425.2h-708.7z"/>
	</g>
	<g id="Calque 1">
		<path id="&lt;Path&gt;" class="s1" d="m1417.3-47h-1417.3v-850.4h1417.3z"/>
		<text id="Baptiste
" style="transform: matrix(2,0,0,2,160.354,-464.856)" >
			<tspan x="15.4" y="30.4" class="t2">Baptiste
</tspan>
		</text>
		<text id="Je pollue 3 242 fois moins que Bernard !
" style="transform: matrix(2,0,0,2,43.697,-179.133)" >
			<tspan x="68" y="30.4" class="t3">Je pollue </tspan><tspan  y="30.4" class="t2">3 242</tspan><tspan  y="30.4" class="t3"> fois moins que </tspan>
			<tspan x="239.9" y="78.4" class="t2">Bernard </tspan><tspan  y="78.4" class="t3">!
</tspan>
		</text>
		<text id="bernard
" style="transform: matrix(2,0,0,2,864.955,-464.857)" >
			<tspan x="19.6" y="30.4" class="t2">bernard
</tspan>
		</text>
		<text id="#OhLaVache
" style="transform: matrix(2,0,0,2,125.321,-895.642)" >
			<tspan x="130.3" y="38" class="t4">#OhLaVache
</tspan>
		</text>
		<g id="&lt;Group&gt;">
			<g id="&lt;Group&gt;">
				<path id="&lt;Compound Path&gt;" fill-rule="evenodd" class="s0" d="m980.5-718.1c-3.8-7.8-8-14.3-9.9-21.4-0.9-3.2 2.5-7.5 3.9-11.4 3.7 1.8 7.8 3 10.8 5.6 2.1 1.7 2.4 5.4 3.9 8.1 6.6 12.4 14.9 20.3 31.2 19.5 27.8-1.5 55.7-1.3 83.6-0.1 12.7 0.6 19.9-5 25.9-14.3 2.9-4.5 4.3-10.1 7.6-14.3 2-2.5 7.4-5.2 9.3-4.2 2.8 1.5 6 6.9 5.2 9.6-2.2 7.7-6.3 14.7-10 22.9 10.9 0 21.7 0.1 32.5-0.1 8.4-0.1 12 3.4 12 12 0.2 26.2-11.8 44.6-36.2 52.5-5.6 1.9-5.7 4.9-5.7 9.4q0.1 36.8 0 73.6c-0.1 40.7-29.3 69.9-70 69.8-14.2 0-28.7 0.6-42.6-1.7-31.3-5.2-54-32.9-54.3-64.8-0.3-25.4-0.2-50.9 0-76.3 0-5.5-0.9-8.4-7-10.3-23.6-7.4-37.7-30.4-34.9-55.2 0.7-6.5 4.5-8.9 10.4-8.9 11.2 0 22.4 0 34.3 0zm147.7 124.8c0-30 0.1-59 0-88-0.1-13.9-6.2-20-20.1-20q-46.8-0.2-93.6 0c-14.4 0-20.4 6-20.4 20.5-0.1 26.7-0.1 53.3 0 80 0 2.4 0.4 4.7 0.6 7.5 44.4 0 88.2 0 133.5 0zm-1.1 17.8c-44 0-88 0-131.9 0-4.6 25.9 13.4 52.9 39.7 56.4 17.2 2.3 35.2 2.3 52.4 0.1 26.2-3.5 44.3-30.4 39.8-56.5zm-174.4-125.4c1.7 17.3 10.5 28.1 24 30.4 1.1-10 2.1-20.1 3.2-30.4-8.6 0-17.5 0-27.2 0zm189.7 0.1c1.1 10.5 2.1 20.5 3.2 30.5 14.4-3.5 22.9-14.4 23.6-30.5-9.2 0-18.4 0-26.8 0z"/>
				<path id="&lt;Path&gt;" class="s0" d="m1044.4-655.8c0.5 5.9-0.5 12.2-7.9 12.6-7.8 0.4-8.7-5.8-8.6-12 0-6.2 0.3-12.5 8.2-12.5 7 0.1 8.7 5.5 8.3 11.9z"/>
				<path id="&lt;Path&gt;" class="s0" d="m1077.8-655c-0.3-6.7 0.8-12.7 8.5-12.6 8 0 8 6.5 8.1 12.6 0 5.9-0.8 11.7-8 11.8-7.5 0-9-5.8-8.6-11.8z"/>
				<path id="&lt;Path&gt;" class="s0" d="m1094.2-551.2c0 3 0.9 6.5-0.3 8.9-1.4 3-4.6 7-7.2 7.2-2.8 0.1-7.7-3.4-8.2-6-1.2-6.3-1.2-13.2-0.1-19.6 0.5-2.7 5.3-6.5 8-6.4 2.7 0 5.9 4.1 7.5 7.1 1.2 2.3 0.2 5.8 0.2 8.8q0.1 0 0.1 0z"/>
				<path id="&lt;Path&gt;" class="s0" d="m1027.8-550.6c0.7-7.1-2.3-16.6 8-16.7 10.7 0 8.6 9.6 8.6 16.5 0 6.6 2.1 15.7-8.1 15.9-11.5 0.2-7.3-10-8.5-15.7z"/>
			</g>
		</g>
		<g id="&lt;Group&gt;">
			<text id="0,6 M
" style="transform: matrix(2,0,0,2,184.927,-360.295)" >
				<tspan x="8.1" y="30.4" class="t2">0,6 M
</tspan>
			</text>
			<g id="&lt;Group&gt;">
				<g id="&lt;Group&gt;">
					<g id="&lt;Group&gt;">
						<path id="&lt;Path&gt;" class="s0" d="m463.1-289.5q-0.5-0.1-1-0.3c-3.8-1-6.4-3.4-7.4-7.2-1.1-3.9-0.1-7.3 2.8-10.1 1.2-1.1 2.7-1.8 4.1-2.7-1.7-3.3-1.8-6.7 0.2-10.1 2-3.3 5.1-4.9 8.9-5-0.3-1.3-0.6-2.6-0.7-3.8-0.5-5.3 3.9-10.5 9.2-10.7 4.6-0.1 9.2-0.1 13.9-0.1 0.8 0 1.6 0 2.4-0.2 2.3-0.5 3.4-2.8 2.6-5-0.1-0.1-0.2-0.3-0.2-0.4-0.3-0.9 0.2-1.5 1.1-1.3 7.1 1 11.5 5 13.1 12 0.7 3.1 0.9 6.1-0.3 9.1 0 0.1 0 0.2 0 0.4 3.8 0.2 6.7 1.9 8.6 5.2 1.9 3.3 1.8 6.7 0.2 10 1.2 0.7 2.5 1.3 3.5 2.2 2.9 2.3 4.1 5.5 3.6 9.1-0.5 4-2.7 6.7-6.4 8.2-0.8 0.3-1.5 0.5-2.3 0.7q-27.9 0-55.9 0z"/>
						<path id="&lt;Path&gt;" class="s0" d="m462.6-333c0-0.7 0-1.3 0.1-1.8 0.4-2.5-0.1-4.8-1.2-7-1.1-2.2-2.3-4.4-3.1-6.7-1.1-3.2-0.9-6.4 1.4-9.1 0.6-0.8 1.6-1.4 2.5-1.9 0.5-0.4 0.7-0.1 0.7 0.4-0.4 3.2 1 5.9 2.6 8.5 1.2 2.1 2.6 4.2 3.1 6.7 0.8 3.7-0.6 8.1-4.3 10.2-0.5 0.3-1.1 0.4-1.8 0.7z"/>
						<path id="&lt;Path&gt;" class="s0" d="m480-343.3c0-0.6-0.1-1 0-1.5 0.4-2.6-0.1-5-1.3-7.3-1-2.1-2.1-4.2-2.9-6.4-1.2-3.2-1-6.4 1.1-9.2 0.8-1.1 1.8-1.8 3.2-2.2 0.1 0.2 0.2 0.4 0.1 0.6-0.3 3 0.9 5.5 2.3 8 1.1 1.8 2.2 3.7 3 5.6 1.6 3.8 0.5 8.2-2.5 10.9-0.8 0.7-1.8 1.4-3 1.5z"/>
					</g>
				</g>
			</g>
		</g>
		<g id="&lt;Group&gt;">
			<text id="1 945,4 M
" style="transform: matrix(2,0,0,2,817.776,-366.573)" >
				<tspan x="20.7" y="30.4" class="t2">1 945,4 </tspan>
				<tspan x="79.7" y="78.4" class="t2">M
</tspan>
			</text>
			<g id="&lt;Group&gt;">
				<g id="&lt;Group&gt;">
					<g id="&lt;Group&gt;">
						<path id="&lt;Path&gt;" class="s0" d="m1239.7-293q-0.5-0.1-1-0.3c-3.8-1-6.4-3.4-7.4-7.2-1-3.9 0-7.3 2.8-10.1 1.2-1.1 2.7-1.8 4.1-2.7-1.7-3.3-1.8-6.7 0.2-10.1 2.1-3.3 5.1-4.9 8.9-5-0.2-1.4-0.6-2.6-0.7-3.8-0.5-5.3 4-10.5 9.2-10.7 4.6-0.2 9.3-0.1 13.9-0.1 0.8 0 1.6 0 2.4-0.2 2.3-0.5 3.4-2.8 2.6-5-0.1-0.1-0.2-0.3-0.2-0.4-0.3-0.9 0.2-1.5 1.1-1.3 7.1 1 11.6 5 13.1 12 0.7 3 0.9 6.1-0.2 9.1-0.1 0.1-0.1 0.2-0.1 0.4 3.8 0.2 6.8 1.9 8.7 5.2 1.9 3.3 1.7 6.7 0.1 10 1.2 0.7 2.5 1.3 3.5 2.2 2.9 2.3 4.1 5.5 3.7 9.1-0.5 4-2.8 6.7-6.5 8.2-0.7 0.3-1.5 0.5-2.2 0.7q-28 0-56 0z"/>
						<path id="&lt;Path&gt;" class="s0" d="m1239.2-336.5c0.1-0.7 0-1.3 0.1-1.8 0.4-2.5-0.1-4.8-1.2-7-1.1-2.2-2.2-4.4-3.1-6.7-1.1-3.2-0.9-6.4 1.4-9.1 0.6-0.8 1.7-1.4 2.5-1.9 0.5-0.4 0.7-0.1 0.7 0.4-0.4 3.2 1 5.9 2.6 8.5 1.2 2.1 2.6 4.2 3.1 6.7 0.8 3.7-0.6 8.1-4.3 10.2-0.5 0.3-1.1 0.4-1.8 0.7z"/>
						<path id="&lt;Path&gt;" class="s0" d="m1256.6-346.8c0-0.6-0.1-1 0-1.5 0.4-2.6-0.1-5-1.3-7.3-1-2.1-2.1-4.2-2.9-6.4-1.2-3.2-1-6.4 1.2-9.2 0.7-1.1 1.8-1.8 3.1-2.2 0.1 0.2 0.2 0.4 0.2 0.6-0.4 3 0.8 5.5 2.3 8 1 1.8 2.1 3.7 2.9 5.6 1.6 3.8 0.6 8.2-2.5 10.9-0.8 0.7-1.8 1.4-3 1.5z"/>
					</g>
				</g>
			</g>
		</g>
		<g id="&lt;Group&gt;">
			<g id="&lt;Group&gt;">
				<g id="&lt;Group&gt;">
					<path id="&lt;Compound Path&gt;" fill-rule="evenodd" class="s0" d="m356.4-500.9c-36.4-0.3-67.3-13.6-92-40.3-24.1-26-34.9-57.3-32.8-92.7 2-33.3 15.7-61.5 40.2-84 26.2-24.1 57.4-34.9 92.8-32.7 33.3 2.1 61.5 15.8 84 40.3 24 26.2 34.7 57.4 32.5 92.8-2 32.9-15.6 60.6-39.5 83.3-20.3 19.1-51.2 34-85.2 33.3zm0.1-230.2c-59.7 0.4-103.3 46.5-105.2 100.6-2.3 64.5 47.2 108 100.4 109.8 64.3 2.2 108.2-47.4 109.8-101.3 1.9-62.7-47.3-109-105-109.1z"/>
					<path id="&lt;Path&gt;" class="s0" d="m356.5-564.9c-14.1-0.4-26.8-4.5-38-13.2-7.1-5.6-12.4-12.8-16.2-21.1-1.9-4.1-0.3-8.5 3.4-10.2 3.7-1.6 7.7 0.1 10 4.1 2.5 4.2 4.9 8.7 8.2 12.3 6.6 7.1 15.2 11 24.8 12.5 11.9 1.9 23-0.2 33.2-6.9q10-6.5 15.1-17.5c1.1-2.4 2.7-4.3 5.6-4.8 5.4-1 10.4 4.1 8.2 9.1-2.2 4.9-4.9 9.8-8.2 14-5.4 6.7-12.1 12-20 15.6-6.2 2.9-12.5 4.9-19.4 5.4-2.2 0.1-4.5 0.4-6.7 0.7z"/>
					<path id="&lt;Path&gt;" class="s0" d="m405.4-659.7c-0.1 8.3-6.4 14.9-14.8 14.9-8.2 0.1-14.7-6.3-14.8-14.8-0.2-7.5 6.5-15 15.1-14.8 7.9 0.1 14.8 7.4 14.5 14.7z"/>
					<path id="&lt;Path&gt;" class="s0" d="m324.3-674.3c7.8-0.5 15.1 6.8 14.9 14.8-0.3 8.3-6.7 14.7-14.8 14.7-8 0-14.8-6-14.8-14.9 0-7.4 5.6-14.7 14.7-14.6z"/>
				</g>
			</g>
		</g>
		<path id="&lt;Path&gt;" class="s5" d="m1417.3 850h-1417.3v-850.4h1417.3z"/>
		<text id="[[username]]" style="transform: matrix(2,0,0,2,8,425.13)" >
			<tspan x="22.4" y="30.4" class="t2">[[username]]</tspan><tspan  y="30.4" class="t2">
</tspan>
		</text>
		<text id="Je pollue 3 242 fois moins que Bernard !
" style="transform: matrix(2,0,0,2,43.697,717.853)" >
			<tspan x="15.7" y="30.4" class="t3">Je pollue </tspan><tspan  y="30.4" class="t2">[[multiplier]]</tspan><tspan  y="30.4" class="t3"> fois moins </tspan>
			<tspan x="203.1" y="78.4" class="t3">que </tspan><tspan  y="78.4" class="t2">[[billionaire]] </tspan><tspan  y="78.4" class="t3">!
</tspan>
		</text>
		<text id="[[billionaire]]" style="transform: matrix(2,0,0,2,730,432.129)" >
			<tspan x="0" y="30.4" class="t2">{</tspan><tspan  y="30.4" class="t2">[[billionaire]]</tspan><tspan  y="30.4" class="t2">}</tspan><tspan  y="30.4" class="t2">
</tspan>
		</text>
		<text id="#OhLaVache
" style="transform: matrix(2,0,0,2,125.321,1.345)" >
			<tspan x="130.3" y="38" class="t4">#OhLaVache
</tspan>
		</text>
		<g id="&lt;Group&gt;">
			<g id="&lt;Group&gt;">
				<path id="&lt;Compound Path&gt;" fill-rule="evenodd" class="s0" d="m980.5 178.9c-3.8-7.9-8-14.4-9.9-21.4-0.9-3.2 2.5-7.6 3.9-11.4 3.7 1.8 7.8 3 10.8 5.6 2.1 1.7 2.4 5.4 3.9 8.1 6.6 12.4 14.9 20.3 31.2 19.4 27.8-1.4 55.7-1.2 83.6 0 12.7 0.6 19.9-5 25.9-14.3 2.9-4.5 4.3-10.1 7.6-14.3 2-2.5 7.4-5.2 9.3-4.2 2.8 1.5 6 6.9 5.2 9.6-2.2 7.6-6.3 14.7-10 22.9 10.9 0 21.7 0.1 32.5-0.1 8.4-0.1 12 3.4 12 12 0.2 26.2-11.8 44.5-36.2 52.5-5.6 1.9-5.7 4.9-5.7 9.4q0.1 36.8 0 73.6c-0.1 40.7-29.3 69.8-70 69.8-14.2-0.1-28.7 0.6-42.6-1.7-31.3-5.2-54-32.9-54.3-64.8-0.3-25.4-0.2-50.9 0-76.3 0-5.5-0.9-8.4-7-10.3-23.6-7.4-37.7-30.5-34.9-55.2 0.7-6.5 4.5-8.9 10.4-8.9 11.2 0 22.4 0 34.3 0zm147.7 124.8c0-30 0.1-59 0-88-0.1-13.9-6.2-20-20.1-20q-46.8-0.2-93.6-0.1c-14.4 0.1-20.4 6.1-20.4 20.6-0.1 26.7-0.1 53.3 0 80 0 2.4 0.4 4.7 0.6 7.5 44.4 0 88.2 0 133.5 0zm-1.1 17.8c-44 0-88 0-131.9 0-4.6 25.9 13.4 52.9 39.7 56.4 17.2 2.3 35.2 2.3 52.4 0 26.2-3.4 44.3-30.3 39.8-56.4zm-174.4-125.4c1.7 17.3 10.5 28.1 24 30.4 1.1-10 2.1-20.1 3.2-30.4-8.6 0-17.5 0-27.2 0zm189.7 0.1c1.1 10.5 2.1 20.5 3.2 30.5 14.4-3.5 22.9-14.4 23.6-30.5-9.2 0-18.4 0-26.8 0z"/>
				<path id="&lt;Path&gt;" class="s0" d="m1044.4 241.2c0.5 5.9-0.5 12.2-7.9 12.6-7.8 0.4-8.7-5.8-8.6-12.1 0-6.1 0.3-12.4 8.2-12.4 7 0.1 8.7 5.5 8.3 11.9z"/>
				<path id="&lt;Path&gt;" class="s0" d="m1077.8 242c-0.3-6.7 0.8-12.7 8.5-12.7 8 0.1 8 6.6 8.1 12.6 0 6-0.8 11.8-8 11.9-7.5 0-9-5.8-8.6-11.8z"/>
				<path id="&lt;Path&gt;" class="s0" d="m1094.2 345.8c0 3 0.9 6.5-0.3 8.9-1.4 3-4.6 7-7.2 7.2-2.8 0.1-7.7-3.4-8.2-6-1.2-6.4-1.2-13.3-0.1-19.6 0.5-2.7 5.3-6.5 8-6.4 2.7 0 5.9 4 7.5 7 1.2 2.4 0.2 5.9 0.2 8.9q0.1 0 0.1 0z"/>
				<path id="&lt;Path&gt;" class="s0" d="m1027.8 346.4c0.7-7.1-2.3-16.6 8-16.7 10.7 0 8.6 9.6 8.6 16.5 0 6.5 2.1 15.7-8.1 15.9-11.5 0.1-7.3-10-8.5-15.7z"/>
			</g>
		</g>
		<g id="&lt;Group&gt;">
			<text id="[[ userCowDung ]]" style="transform: matrix(2,0,0,2,-154,536.691)" >
				<tspan x="12.8" y="30.4" class="t2">{</tspan><tspan  y="30.4" class="t2">{</tspan><tspan  y="30.4" class="t2"> </tspan><tspan  y="30.4" class="t2">u</tspan><tspan  y="30.4" class="t2">s</tspan><tspan  y="30.4" class="t2">e</tspan><tspan  y="30.4" class="t2">r</tspan><tspan  y="30.4" class="t2">C</tspan><tspan  y="30.4" class="t2">o</tspan><tspan  y="30.4" class="t2">w</tspan><tspan  y="30.4" class="t2">Dung</tspan><tspan  y="30.4" class="t2"> </tspan><tspan  y="30.4" class="t2">}</tspan><tspan  y="30.4" class="t2">}</tspan><tspan  y="30.4" class="t2">
</tspan>
			</text>
			<g id="&lt;Group&gt;">
				<g id="&lt;Group&gt;">
					<g id="&lt;Group&gt;">
						<path id="&lt;Path&gt;" class="s0" d="m463.1 607.5q-0.5-0.2-1-0.3c-3.8-1-6.4-3.5-7.4-7.3-1.1-3.8-0.1-7.3 2.8-10 1.2-1.1 2.7-1.8 4.1-2.7-1.7-3.3-1.8-6.7 0.2-10.1 2-3.3 5.1-4.9 8.9-5-0.3-1.4-0.6-2.6-0.7-3.9-0.5-5.2 3.9-10.4 9.2-10.6 4.6-0.2 9.2-0.1 13.9-0.1 0.8 0 1.6 0 2.4-0.2 2.3-0.6 3.4-2.8 2.6-5-0.1-0.1-0.2-0.3-0.2-0.4-0.3-0.9 0.2-1.5 1.1-1.4 7.1 1 11.5 5 13.1 12.1 0.7 3 0.9 6.1-0.3 9.1 0 0.1 0 0.2 0 0.4 3.8 0.2 6.7 1.9 8.6 5.2 1.9 3.3 1.8 6.7 0.2 10 1.2 0.7 2.5 1.3 3.5 2.2 2.9 2.3 4.1 5.4 3.6 9.1-0.5 3.9-2.7 6.7-6.4 8.2-0.8 0.3-1.5 0.5-2.3 0.7q-27.9 0-55.9 0z"/>
						<path id="&lt;Path&gt;" class="s0" d="m462.6 564c0-0.8 0-1.3 0.1-1.8 0.4-2.5-0.1-4.8-1.2-7-1.1-2.2-2.3-4.4-3.1-6.7-1.1-3.2-0.9-6.4 1.4-9.2 0.6-0.8 1.6-1.3 2.5-1.9 0.5-0.3 0.7 0 0.7 0.5-0.4 3.2 1 5.9 2.6 8.5 1.2 2.1 2.6 4.2 3.1 6.7 0.8 3.7-0.6 8.1-4.3 10.2-0.5 0.3-1.1 0.4-1.8 0.7z"/>
						<path id="&lt;Path&gt;" class="s0" d="m480 553.7c0-0.6-0.1-1 0-1.5 0.4-2.6-0.1-5-1.3-7.3-1-2.1-2.1-4.2-2.9-6.4-1.2-3.2-1-6.4 1.1-9.2 0.8-1.1 1.8-1.9 3.2-2.2 0.1 0.2 0.2 0.4 0.1 0.6-0.3 3 0.9 5.5 2.3 8 1.1 1.8 2.2 3.7 3 5.6 1.6 3.8 0.5 8.2-2.5 10.9-0.8 0.7-1.8 1.4-3 1.5z"/>
					</g>
				</g>
			</g>
		</g>
		<g id="&lt;Group&gt;">
			<text id="[[billionnaireCowDung]]" style="transform: matrix(2,0,0,2,584,536.413)" >
				<tspan x="0" y="30.4" class="t2">{</tspan><tspan  y="30.4" class="t2">{</tspan><tspan  y="30.4" class="t2">b</tspan><tspan  y="30.4" class="t2">i</tspan><tspan  y="30.4" class="t2">l</tspan><tspan  y="30.4" class="t2">l</tspan><tspan  y="30.4" class="t2">i</tspan><tspan  y="30.4" class="t2">o</tspan><tspan  y="30.4" class="t2">n</tspan><tspan  y="30.4" class="t2">n</tspan><tspan  y="30.4" class="t2">a</tspan><tspan  y="30.4" class="t2">i</tspan><tspan  y="30.4" class="t2">r</tspan><tspan  y="30.4" class="t2">e</tspan><tspan  y="30.4" class="t2">C</tspan><tspan  y="30.4" class="t2">o</tspan><tspan  y="30.4" class="t2">w</tspan><tspan  y="30.4" class="t2">D</tspan><tspan  y="30.4" class="t2">u</tspan><tspan  y="30.4" class="t2">n</tspan><tspan  y="30.4" class="t2">g</tspan><tspan  y="30.4" class="t2">}</tspan><tspan  y="30.4" class="t2">
</tspan>
			</text>
			<g id="&lt;Group&gt;">
				<g id="&lt;Group&gt;">
					<g id="&lt;Group&gt;">
						<path id="&lt;Path&gt;" class="s0" d="m1239.7 604q-0.5-0.2-1-0.3c-3.8-1.1-6.4-3.5-7.4-7.3-1-3.8 0-7.3 2.8-10 1.2-1.1 2.7-1.8 4.1-2.7-1.7-3.3-1.8-6.7 0.2-10.1 2.1-3.4 5.1-4.9 8.9-5-0.2-1.4-0.6-2.6-0.7-3.9-0.5-5.2 4-10.4 9.2-10.6 4.6-0.2 9.3-0.1 13.9-0.1 0.8 0 1.6 0 2.4-0.2 2.3-0.6 3.4-2.8 2.6-5-0.1-0.1-0.2-0.3-0.2-0.4-0.3-0.9 0.2-1.5 1.1-1.4 7.1 1 11.6 5 13.1 12.1 0.7 3 0.9 6.1-0.2 9.1-0.1 0.1-0.1 0.2-0.1 0.4 3.8 0.2 6.8 1.9 8.7 5.2 1.9 3.3 1.7 6.7 0.1 10 1.2 0.7 2.5 1.3 3.5 2.2 2.9 2.3 4.1 5.4 3.7 9.1-0.5 3.9-2.8 6.7-6.5 8.2-0.7 0.3-1.5 0.5-2.2 0.7q-28 0-56 0z"/>
						<path id="&lt;Path&gt;" class="s0" d="m1239.2 560.5c0.1-0.8 0-1.3 0.1-1.8 0.4-2.5-0.1-4.8-1.2-7-1.1-2.2-2.2-4.4-3.1-6.7-1.1-3.2-0.9-6.4 1.4-9.2 0.6-0.8 1.7-1.3 2.5-1.9 0.5-0.3 0.7 0 0.7 0.5-0.4 3.2 1 5.9 2.6 8.5 1.2 2.1 2.6 4.2 3.1 6.7 0.8 3.7-0.6 8.1-4.3 10.2-0.5 0.3-1.1 0.4-1.8 0.7z"/>
						<path id="&lt;Path&gt;" class="s0" d="m1256.6 550.2c0-0.6-0.1-1 0-1.5 0.4-2.6-0.1-5-1.3-7.3-1-2.1-2.1-4.2-2.9-6.4-1.2-3.2-1-6.4 1.2-9.2 0.7-1.1 1.8-1.9 3.1-2.2 0.1 0.2 0.2 0.4 0.2 0.6-0.4 3 0.8 5.5 2.3 8 1 1.8 2.1 3.7 2.9 5.6 1.6 3.8 0.6 8.2-2.5 10.9-0.8 0.7-1.8 1.4-3 1.5z"/>
					</g>
				</g>
			</g>
		</g>
		<g id="&lt;Group&gt;">
			<g id="&lt;Group&gt;">
				<g id="&lt;Group&gt;">
					<path id="&lt;Compound Path&gt;" fill-rule="evenodd" class="s0" d="m356.4 396.1c-36.4-0.3-67.3-13.6-92-40.3-24.1-26.1-34.9-57.3-32.8-92.7 2-33.3 15.7-61.5 40.2-84.1 26.2-24 57.4-34.8 92.8-32.6 33.3 2 61.5 15.7 84 40.3 24 26.1 34.7 57.4 32.5 92.8-2 32.9-15.6 60.6-39.5 83.2-20.3 19.1-51.2 34.1-85.2 33.4zm0.1-230.2c-59.7 0.4-103.3 46.5-105.2 100.6-2.3 64.5 47.2 107.9 100.4 109.8 64.3 2.2 108.2-47.4 109.8-101.3 1.9-62.7-47.3-109-105-109.1z"/>
					<path id="&lt;Path&gt;" class="s0" d="m356.5 332.1c-14.1-0.4-26.8-4.5-38-13.2-7.1-5.6-12.4-12.8-16.2-21.1-1.9-4.1-0.3-8.5 3.4-10.2 3.7-1.7 7.7 0.1 10 4.1 2.5 4.2 4.9 8.7 8.2 12.2 6.6 7.2 15.2 11.1 24.8 12.6 11.9 1.8 23-0.3 33.2-6.9q10-6.5 15.1-17.5c1.1-2.4 2.7-4.3 5.6-4.8 5.4-1.1 10.4 4 8.2 9.1-2.2 4.9-4.9 9.8-8.2 14-5.4 6.7-12.1 12-20 15.6-6.2 2.8-12.5 4.9-19.4 5.3-2.2 0.2-4.5 0.5-6.7 0.8z"/>
					<path id="&lt;Path&gt;" class="s0" d="m405.4 237.3c-0.1 8.3-6.4 14.9-14.8 14.9-8.2 0.1-14.7-6.4-14.8-14.8-0.2-7.6 6.5-15 15.1-14.9 7.9 0.2 14.8 7.5 14.5 14.8z"/>
					<path id="&lt;Path&gt;" class="s0" d="m324.3 222.6c7.8-0.4 15.1 6.9 14.9 14.9-0.3 8.3-6.7 14.7-14.8 14.7-8 0-14.8-6-14.8-14.9 0-7.4 5.6-14.7 14.7-14.7z"/>
				</g>
			</g>
		</g>
	</g>
</svg>